<svg xmlns="http://www.w3.org/2000/svg" width="128" height="128" viewBox="0 0 128 128" role="img" aria-label="Ravono placeholder logo">
  <defs>
    <linearGradient id="g" x1="0" x2="1" y1="0" y2="1">
      <stop offset="0" stop-color="#F97316"/>
      <stop offset="1" stop-color="#1E3A8A"/>
    </linearGradient>
  </defs>
  <rect rx="24" ry="24" width="128" height="128" fill="url(#g)"/>
  <g fill="#fff" opacity="0.95" transform="translate(20,20)">
    <path d="M44 0c-10.5 0-20.2 4-27.6 11.4C8.9 18.9 4.9 28.5 5 39c0 2.5.3 5 .9 7.4l-6 6a4 4 0 0 0 5.7 5.7l5.1-5.1C16 62.8 29 70 44 70c19.3 0 35-15.7 35-35S63.3 0 44 0zm0 8c15 0 27 12 27 27S59 62 44 62 17 50 17 35 29 8 44 8z"/>
    <circle cx="44" cy="35" r="8"/>
  </g>
</svg>